<?xml version="1.0" encoding="UTF-8"?>
<!DOCTYPE svg PUBLIC "-//W3C//DTD SVG 1.1//EN" "http://www.w3.org/Graphics/SVG/1.1/DTD/svg11.dtd">
<!-- Creator: CorelDRAW -->
<svg xmlns="http://www.w3.org/2000/svg" xml:space="preserve" width="2048px" height="2048px"
    style="shape-rendering:geometricPrecision; text-rendering:geometricPrecision; image-rendering:optimizeQuality; fill-rule:evenodd; clip-rule:evenodd"
    viewBox="0 0 2048 2048"
    xmlns:xlink="http://www.w3.org/1999/xlink">
 <defs>
  <style type="text/css">
   <![CDATA[
    .fil0 {fill:none}
    .fil2 {fill:#9f8660}
    .fil1 {fill:#9f8660;fill-rule:nonzero}
   ]]>
  </style>
 </defs>
 <g id="Layer_x0020_1">
  <metadata id="CorelCorpID_0Corel-Layer"/>
  <g id="_393277432">
   <rect id="_393281776" class="fil0" width="2048" height="2048"/>
   <rect id="_393283096" class="fil0" x="255.999" y="255.999" width="1536" height="1536"/>
  </g>
  <polygon class="fil1" points="1056,1376 1056,1760 991.999,1760 991.999,1376 "/>
  <path class="fil1" d="M703.999 1728c-17.6728,0 -32.0008,14.328 -32.0008,32.0008 0,17.6728 14.328,32.0008 32.0008,32.0008l640.002 0c17.6728,0 32.0008,-14.328 32.0008,-32.0008 0,-17.6728 -14.328,-32.0008 -32.0008,-32.0008l-640.002 0z"/>
  <g id="_394196032">
   <path id="_393280024" class="fil1" d="M255.999 223.997l1536 0 32.0008 0 0 32.0008 0 288 0 32.0008 -32.0008 0 -1536 0 -32.0008 0 0 -32.0008 0 -288 0 -32.0008 32.0008 0zm1504 64.0016l-1472 0 0 223.999 1472 0 0 -223.999z"/>
   <g>
    <circle id="_393275080" class="fil2" cx="400.001" cy="399.998" r="48"/>
    <circle id="_393278896" class="fil2" cx="556.511" cy="399.998" r="48"/>
   </g>
  </g>
  <g id="_394192984">
   <path id="_394190944" class="fil1" d="M255.999 639.999l1536 0 32.0008 0 0 32.0008 0 288 0 32.0008 -32.0008 0 -1536 0 -32.0008 0 0 -32.0008 0 -288 0 -32.0008 32.0008 0zm1504 64.0016l-1472 0 0 223.999 1472 0 0 -223.999z"/>
   <g>
    <circle id="_394196320" class="fil2" cx="400.001" cy="815.999" r="48"/>
    <circle id="_394193488" class="fil2" cx="556.511" cy="815.999" r="48"/>
   </g>
  </g>
  <g id="_394196248">
   <path id="_394196272" class="fil1" d="M255.999 1056l1536 0 32.0008 0 0 32.0008 0 288 0 32.0008 -32.0008 0 -1536 0 -32.0008 0 0 -32.0008 0 -288 0 -32.0008 32.0008 0zm1504 64.0016l-1472 0 0 223.999 1472 0 0 -223.999z"/>
   <g>
    <circle id="_394194376" class="fil2" cx="400.001" cy="1232" r="48"/>
    <circle id="_394193632" class="fil2" cx="556.511" cy="1232" r="48"/>
   </g>
  </g>
 </g>
</svg>